<svg width="26" height="35" viewBox="0 0 26 35" fill="none" xmlns="http://www.w3.org/2000/svg">
<path d="M0 35C0 31.4638 1.36964 28.0724 3.80761 25.5719C6.24558 23.0714 9.55219 21.6667 13 21.6667C16.4478 21.6667 19.7544 23.0714 22.1924 25.5719C24.6304 28.0724 26 31.4638 26 35H22.75C22.75 32.3478 21.7228 29.8043 19.8943 27.9289C18.0658 26.0536 15.5859 25 13 25C10.4141 25 7.93419 26.0536 6.10571 27.9289C4.27723 29.8043 3.25 32.3478 3.25 35H0ZM13 20C7.61312 20 3.25 15.525 3.25 10C3.25 4.475 7.61312 0 13 0C18.3869 0 22.75 4.475 22.75 10C22.75 15.525 18.3869 20 13 20ZM13 16.6667C16.5912 16.6667 19.5 13.6833 19.5 10C19.5 6.31667 16.5912 3.33333 13 3.33333C9.40875 3.33333 6.5 6.31667 6.5 10C6.5 13.6833 9.40875 16.6667 13 16.6667Z" fill="#878787"/>
</svg>
