<svg width="212" height="98" viewBox="0 0 212 98" fill="none" xmlns="http://www.w3.org/2000/svg">
<path d="M208.875 84.7045L3.12556 81.2514C1.39899 81.2514 0.000555649 82.6498 0.000555649 84.3764V90.6264C0.000555649 92.3529 1.39899 93.7514 3.12556 93.7514L208.875 97.2045C210.602 97.2045 212 95.8061 212 94.0795V87.8295C212 86.1029 210.602 84.7045 208.875 84.7045ZM15.733 60.4057C16.9595 61.7416 18.6822 62.4994 20.4849 62.4975L45.981 62.4623C47.9931 62.4598 49.9764 61.9834 51.7701 61.0717L108.598 32.2338C113.821 29.5834 118.503 25.8002 121.688 20.8451C125.264 15.2826 125.653 11.2572 124.241 8.41349C122.833 5.56778 119.409 3.47794 112.864 3.05216C107.034 2.67325 101.235 4.20841 96.0123 6.85685L76.772 16.6205L34.0572 0.593174C33.5436 0.247212 32.9469 0.0447066 32.3289 0.00659247C31.7108 -0.0315217 31.0938 0.0961388 30.5416 0.376377L17.6998 6.89396C15.6158 7.9506 15.1119 10.7318 16.69 12.4662L47.2017 31.6264L27.0435 41.8568L12.9127 34.7338C12.4258 34.4883 11.8881 34.3607 11.3429 34.3614C10.7976 34.3621 10.2602 34.491 9.77399 34.7377L1.9361 38.7162C-0.10296 39.7514 -0.64007 42.4506 0.848211 44.2006L15.733 60.4057Z" fill="#FFEC00"/>
</svg>
