<svg width="625" height="464" viewBox="0 0 625 464" fill="none" xmlns="http://www.w3.org/2000/svg">
<path d="M372.07 76.207L181.738 4.82031C165.43 -1.23437 147.363 -0.355467 131.836 7.45703L87.0117 29.8203C76.1719 35.2891 75.3906 50.4258 85.5469 56.9687L229.004 149.254L132.812 198.375L75.9766 173.082C67.4805 169.273 57.6172 169.469 49.3164 173.668L17.8711 189.391C8.78906 193.98 6.34766 205.797 12.9883 213.512L84.375 296.812C90.332 303.746 99.0234 307.75 108.105 307.75H242.578C247.461 307.75 252.246 306.578 256.543 304.43L523.047 171.227C568.457 148.473 603.613 109.41 621.484 61.8516C630.762 37.2422 612.5 10.875 586.133 10.875H530.078C510.352 10.875 490.82 15.5625 473.242 24.5469L372.07 76.207ZM0 432.75C0 450.035 13.9648 464 31.25 464H593.75C611.035 464 625 450.035 625 432.75C625 415.465 611.035 401.5 593.75 401.5H31.25C13.9648 401.5 0 415.465 0 432.75Z" fill="#FFEF00"/>
</svg>
