<svg width="80" height="80" viewBox="0 0 80 80" fill="none" xmlns="http://www.w3.org/2000/svg">
<path d="M75.9375 71.6406H4.0625C2.33398 71.6406 0.9375 73.0371 0.9375 74.7656V78.2812C0.9375 78.7109 1.28906 79.0625 1.71875 79.0625H78.2812C78.7109 79.0625 79.0625 78.7109 79.0625 78.2812V74.7656C79.0625 73.0371 77.666 71.6406 75.9375 71.6406ZM15.166 63.4375C15.3613 63.4375 15.5566 63.418 15.752 63.3887L32.1777 60.5078C32.373 60.4687 32.5586 60.3809 32.6953 60.2344L74.0918 18.8379C74.1823 18.7475 74.2542 18.6402 74.3032 18.5221C74.3522 18.404 74.3774 18.2773 74.3774 18.1494C74.3774 18.0215 74.3522 17.8949 74.3032 17.7767C74.2542 17.6586 74.1823 17.5513 74.0918 17.4609L57.8613 1.2207C57.6758 1.03516 57.4316 0.9375 57.168 0.9375C56.9043 0.9375 56.6602 1.03516 56.4746 1.2207L15.0781 42.6172C14.9316 42.7637 14.8438 42.9395 14.8047 43.1348L11.9238 59.5605C11.8288 60.0837 11.8628 60.6221 12.0227 61.1292C12.1827 61.6363 12.4638 62.0967 12.8418 62.4707C13.4863 63.0957 14.2969 63.4375 15.166 63.4375Z" fill="#989797"/>
</svg>
