<svg width="28" height="39" viewBox="0 0 28 39" fill="none" xmlns="http://www.w3.org/2000/svg">
<path d="M3.5 39C2.5375 39 1.71383 38.6366 1.029 37.9099C0.344166 37.1831 0.00116667 36.3084 0 35.2857V16.7143C0 15.6929 0.343 14.8188 1.029 14.092C1.715 13.3652 2.53867 13.0012 3.5 13H5.25V9.28571C5.25 6.71667 6.10342 4.5271 7.81025 2.717C9.51708 0.906906 11.5803 0.00123936 14 1.26767e-06C16.4197 -0.00123683 18.4835 0.90443 20.1915 2.717C21.8995 4.52957 22.7523 6.71914 22.75 9.28571V13H24.5C25.4625 13 26.2867 13.364 26.9727 14.092C27.6587 14.82 28.0012 15.6941 28 16.7143V35.2857C28 36.3071 27.6576 37.1819 26.9727 37.9099C26.2879 38.6379 25.4637 39.0012 24.5 39H3.5ZM3.5 35.2857H24.5V16.7143H3.5V35.2857ZM14 29.7143C14.9625 29.7143 15.7867 29.3509 16.4727 28.6241C17.1587 27.8974 17.5012 27.0227 17.5 26C17.4988 24.9773 17.1564 24.1032 16.4727 23.3777C15.7891 22.6522 14.9648 22.2882 14 22.2857C13.0352 22.2832 12.2115 22.6472 11.529 23.3777C10.8465 24.1082 10.5035 24.9823 10.5 26C10.4965 27.0177 10.8395 27.8924 11.529 28.6241C12.2185 29.3559 13.0422 29.7192 14 29.7143ZM8.75 13H19.25V9.28571C19.25 7.7381 18.7396 6.42262 17.7187 5.33929C16.6979 4.25595 15.4583 3.71429 14 3.71429C12.5417 3.71429 11.3021 4.25595 10.2812 5.33929C9.26042 6.42262 8.75 7.7381 8.75 9.28571V13Z" fill="#878787"/>
</svg>
